name Walk10.mot
datacolumns 19
datarows 30
range 2.15300000 2.18200000
endheader

                time	   L_ground_force_vx	   L_ground_force_vy	   L_ground_force_vz	   L_ground_force_px	   L_ground_force_py	   L_ground_force_pz	   R_ground_force_vx	   R_ground_force_vy	   R_ground_force_vz	   R_ground_force_px	   R_ground_force_py	   R_ground_force_pz	   L_ground_torque_x	   L_ground_torque_y	   L_ground_torque_z	   R_ground_torque_x	   R_ground_torque_y	   R_ground_torque_z	
          2.15300000	        -28.64123817	        545.93360457	        -46.82603774	          0.25159000	          0.00000000	          0.08937356	          0.00000000	          0.00000000	          0.00000000	          0.00000000	          0.00000000	          0.00000000	          0.00000000	          0.39727671	          0.00000000	          0.00000000	          0.00000000	          0.00000000	
          2.15400000	        -28.14873213	        544.44451381	        -46.62958042	          0.25204136	          0.00000000	          0.08958027	          0.00000000	          0.00000000	          0.00000000	          0.00000000	          0.00000000	          0.00000000	          0.00000000	          0.40539172	          0.00000000	          0.00000000	          0.00000000	          0.00000000	
          2.15500000	        -27.67067613	        542.99400686	        -46.44455838	          0.25248285	          0.00000000	          0.08974660	          0.00000000	          0.00000000	          0.00000000	          0.00000000	          0.00000000	          0.00000000	          0.00000000	          0.40966802	          0.00000000	          0.00000000	          0.00000000	          0.00000000	
          2.15600000	        -27.19916464	        541.58522349	        -46.26939526	          0.25291494	          0.00000000	          0.08984302	          0.00000000	          0.00000000	          0.00000000	          0.00000000	          0.00000000	          0.00000000	          0.00000000	          0.40715211	          0.00000000	          0.00000000	          0.00000000	          0.00000000	
          2.15700000	        -26.72750150	        540.21457121	        -46.09802267	          0.25332942	          0.00000000	          0.08987223	          0.00000000	          0.00000000	          0.00000000	          0.00000000	          0.00000000	          0.00000000	          0.00000000	          0.39893651	          0.00000000	          0.00000000	          0.00000000	          0.00000000	
          2.15800000	        -26.25624991	        538.88694745	        -45.92525615	          0.25370366	          0.00000000	          0.08988483	          0.00000000	          0.00000000	          0.00000000	          0.00000000	          0.00000000	          0.00000000	          0.00000000	          0.39035164	          0.00000000	          0.00000000	          0.00000000	          0.00000000	
          2.15900000	        -25.80095426	        537.61215929	        -45.74456878	          0.25403103	          0.00000000	          0.08994841	          0.00000000	          0.00000000	          0.00000000	          0.00000000	          0.00000000	          0.00000000	          0.00000000	          0.38711792	          0.00000000	          0.00000000	          0.00000000	          0.00000000	
          2.16000000	        -25.38704188	        536.38634892	        -45.54165862	          0.25433806	          0.00000000	          0.09009269	          0.00000000	          0.00000000	          0.00000000	          0.00000000	          0.00000000	          0.00000000	          0.00000000	          0.38844093	          0.00000000	          0.00000000	          0.00000000	          0.00000000	
          2.16100000	        -25.02092931	        535.18622101	        -45.30106790	          0.25466333	          0.00000000	          0.09030289	          0.00000000	          0.00000000	          0.00000000	          0.00000000	          0.00000000	          0.00000000	          0.00000000	          0.38764454	          0.00000000	          0.00000000	          0.00000000	          0.00000000	
          2.16200000	        -24.67607353	        533.98771981	        -45.02322204	          0.25502236	          0.00000000	          0.09054607	          0.00000000	          0.00000000	          0.00000000	          0.00000000	          0.00000000	          0.00000000	          0.00000000	          0.38078706	          0.00000000	          0.00000000	          0.00000000	          0.00000000	
          2.16300000	        -24.31691912	        532.76978545	        -44.72706028	          0.25539107	          0.00000000	          0.09077303	          0.00000000	          0.00000000	          0.00000000	          0.00000000	          0.00000000	          0.00000000	          0.00000000	          0.36990557	          0.00000000	          0.00000000	          0.00000000	          0.00000000	
          2.16400000	        -23.92491868	        531.51407229	        -44.43292366	          0.25573221	          0.00000000	          0.09092699	          0.00000000	          0.00000000	          0.00000000	          0.00000000	          0.00000000	          0.00000000	          0.00000000	          0.35814034	          0.00000000	          0.00000000	          0.00000000	          0.00000000	
          2.16500000	        -23.50089459	        530.23835742	        -44.14809265	          0.25603668	          0.00000000	          0.09098295	          0.00000000	          0.00000000	          0.00000000	          0.00000000	          0.00000000	          0.00000000	          0.00000000	          0.34699110	          0.00000000	          0.00000000	          0.00000000	          0.00000000	
          2.16600000	        -23.05777424	        528.99856887	        -43.87185851	          0.25631966	          0.00000000	          0.09096312	          0.00000000	          0.00000000	          0.00000000	          0.00000000	          0.00000000	          0.00000000	          0.00000000	          0.33806062	          0.00000000	          0.00000000	          0.00000000	          0.00000000	
          2.16700000	        -22.61379208	        527.81951546	        -43.60559962	          0.25658960	          0.00000000	          0.09091288	          0.00000000	          0.00000000	          0.00000000	          0.00000000	          0.00000000	          0.00000000	          0.00000000	          0.33377105	          0.00000000	          0.00000000	          0.00000000	          0.00000000	
          2.16800000	        -22.18402114	        526.65339766	        -43.35110223	          0.25685445	          0.00000000	          0.09087748	          0.00000000	          0.00000000	          0.00000000	          0.00000000	          0.00000000	          0.00000000	          0.00000000	          0.33625377	          0.00000000	          0.00000000	          0.00000000	          0.00000000	
          2.16900000	        -21.77599174	        525.44120173	        -43.10525773	          0.25713897	          0.00000000	          0.09088934	          0.00000000	          0.00000000	          0.00000000	          0.00000000	          0.00000000	          0.00000000	          0.00000000	          0.34532822	          0.00000000	          0.00000000	          0.00000000	          0.00000000	
          2.17000000	        -21.38849645	        524.18325902	        -42.86317233	          0.25746093	          0.00000000	          0.09095004	          0.00000000	          0.00000000	          0.00000000	          0.00000000	          0.00000000	          0.00000000	          0.00000000	          0.35758816	          0.00000000	          0.00000000	          0.00000000	          0.00000000	
          2.17100000	        -21.00778833	        522.91073673	        -42.62585003	          0.25780096	          0.00000000	          0.09102358	          0.00000000	          0.00000000	          0.00000000	          0.00000000	          0.00000000	          0.00000000	          0.00000000	          0.36951116	          0.00000000	          0.00000000	          0.00000000	          0.00000000	
          2.17200000	        -20.61543177	        521.64504862	        -42.39937983	          0.25811513	          0.00000000	          0.09106975	          0.00000000	          0.00000000	          0.00000000	          0.00000000	          0.00000000	          0.00000000	          0.00000000	          0.37976639	          0.00000000	          0.00000000	          0.00000000	          0.00000000	
          2.17300000	        -20.20633904	        520.43128550	        -42.18597868	          0.25838086	          0.00000000	          0.09108571	          0.00000000	          0.00000000	          0.00000000	          0.00000000	          0.00000000	          0.00000000	          0.00000000	          0.38718604	          0.00000000	          0.00000000	          0.00000000	          0.00000000	
          2.17400000	        -19.79168743	        519.35702163	        -41.97986043	          0.25862664	          0.00000000	          0.09110902	          0.00000000	          0.00000000	          0.00000000	          0.00000000	          0.00000000	          0.00000000	          0.00000000	          0.38978009	          0.00000000	          0.00000000	          0.00000000	          0.00000000	
          2.17500000	        -19.38827112	        518.49111169	        -41.77338874	          0.25890333	          0.00000000	          0.09118979	          0.00000000	          0.00000000	          0.00000000	          0.00000000	          0.00000000	          0.00000000	          0.00000000	          0.38717986	          0.00000000	          0.00000000	          0.00000000	          0.00000000	
          2.17600000	        -19.00788116	        517.79605090	        -41.56530821	          0.25922401	          0.00000000	          0.09135125	          0.00000000	          0.00000000	          0.00000000	          0.00000000	          0.00000000	          0.00000000	          0.00000000	          0.38280201	          0.00000000	          0.00000000	          0.00000000	          0.00000000	
          2.17700000	        -18.64880145	        517.12364835	        -41.35750596	          0.25955450	          0.00000000	          0.09156431	          0.00000000	          0.00000000	          0.00000000	          0.00000000	          0.00000000	          0.00000000	          0.00000000	          0.38159858	          0.00000000	          0.00000000	          0.00000000	          0.00000000	
          2.17800000	        -18.29448982	        516.34022233	        -41.14675250	          0.25987863	          0.00000000	          0.09177787	          0.00000000	          0.00000000	          0.00000000	          0.00000000	          0.00000000	          0.00000000	          0.00000000	          0.38579051	          0.00000000	          0.00000000	          0.00000000	          0.00000000	
          2.17900000	        -17.92260555	        515.44651879	        -40.92964198	          0.26023784	          0.00000000	          0.09197192	          0.00000000	          0.00000000	          0.00000000	          0.00000000	          0.00000000	          0.00000000	          0.00000000	          0.39491575	          0.00000000	          0.00000000	          0.00000000	          0.00000000	
          2.18000000	        -17.51919211	        514.53454845	        -40.71263918	          0.26067175	          0.00000000	          0.09214154	          0.00000000	          0.00000000	          0.00000000	          0.00000000	          0.00000000	          0.00000000	          0.00000000	          0.40780698	          0.00000000	          0.00000000	          0.00000000	          0.00000000	
          2.18100000	        -17.08699275	        513.66170640	        -40.51186505	          0.26115507	          0.00000000	          0.09224746	          0.00000000	          0.00000000	          0.00000000	          0.00000000	          0.00000000	          0.00000000	          0.00000000	          0.42249479	          0.00000000	          0.00000000	          0.00000000	          0.00000000	
          2.18200000	        -16.64140031	        512.83051425	        -40.34378485	          0.26162000	          0.00000000	          0.09224540	          0.00000000	          0.00000000	          0.00000000	          0.00000000	          0.00000000	          0.00000000	          0.00000000	          0.43603034	          0.00000000	          0.00000000	          0.00000000	          0.00000000	
